<svg xmlns="http://www.w3.org/2000/svg" viewBox="0 0 159 48" width="159" height="48"><g fill="none" stroke-linecap="round" stroke-linejoin="round"> <path d="M11.5 8h25a5.5 5.5 0 0 1 5.5 5.5v15A5.5 5.5 0 0 1 36.5 34H24.5L15 41.5V34h-3.5A5.5 5.5 0 0 1 6 28.5v-15A5.5 5.5 0 0 1 11.5 8Z" stroke="#4c23cc" stroke-width="5"></path> <path d="M17 19c2 4.4 4.4 6.6 7 6.6s5-2.2 7-6.6" stroke="#ffb3b3" stroke-width="5.4"></path> </g><path d="M2.47 -20.00L13.98 -20.00L13.98 -16.67L13.92 -16.56L6.75 -16.56L6.71 -16.50L6.75 -12.17L13.42 -12.17L13.47 -12.08L13.47 -8.75L13.42 -8.70L6.71 -8.67L6.71 -3.58L13.92 -3.54L13.98 -3.50L13.98 -0.08L13.92 -0.04L2.47 -0.08ZM25.58 -15.58L26.17 -15.61L27.17 -15.54L28.00 -15.35L28.83 -15.04L29.58 -14.58L30.25 -13.97L30.62 -13.50L31.03 -12.67L31.36 -11.33L31.44 -10.08L31.44 -0.08L27.27 -0.08L27.27 -9.17L27.12 -10.42L26.85 -11.17L26.33 -11.83L25.58 -12.18L24.83 -12.29L24.25 -12.25L23.58 -12.11L22.92 -11.79L22.31 -11.17L21.88 -10.25L21.65 -9.33L21.50 -7.42L21.50 -0.08L17.33 -0.07L17.32 -15.25L17.42 -15.32L20.50 -15.31L21.06 -13.42L21.25 -13.38L22.11 -14.33L22.75 -14.80L23.42 -15.13L24.17 -15.37L24.92 -15.53ZM39.75 -15.58L40.25 -15.61L41.25 -15.52L42.17 -15.29L42.58 -15.10L43.17 -14.79L43.75 -14.33L44.55 -13.42L44.67 -13.38L45.08 -15.32L48.50 -15.32L48.57 -15.25L48.57 0.08L48.52 1.08L48.29 2.25L48.04 3.00L47.70 3.67L47.11 4.50L46.58 5.03L45.75 5.61L44.67 6.12L43.50 6.45L42.67 6.58L40.75 6.68L38.17 6.52L36.50 6.19L35.21 5.75L35.25 2.47L36.58 2.94L38.17 3.35L40.33 3.60L41.92 3.58L42.58 3.42L43.17 3.12L43.58 2.78L43.96 2.25L44.27 1.42L44.37 0.83L44.50 -2.02L44.42 -2.03L44.31 -1.92L44.03 -1.50L43.42 -0.89L42.83 -0.46L42.17 -0.13L40.83 0.20L39.42 0.21L38.75 0.11L38.17 -0.06L37.17 -0.54L36.67 -0.92L36.17 -1.42L35.71 -2.00L35.31 -2.67L34.90 -3.58L34.64 -4.42L34.40 -5.75L34.31 -6.75L34.31 -8.50L34.40 -9.58L34.55 -10.42L34.88 -11.67L35.15 -12.33L35.56 -13.08L35.97 -13.67L36.67 -14.38L37.17 -14.77L37.83 -15.13L38.42 -15.36ZM57.67 -15.58L59.75 -15.60L60.83 -15.45L62.00 -15.12L62.58 -14.86L63.50 -14.25L64.13 -13.58L64.61 -12.75L64.94 -11.67L65.07 -10.25L65.07 -0.08L65.00 -0.04L62.17 -0.06L61.33 -2.12L61.22 -2.08L60.33 -1.14L59.92 -0.81L59.33 -0.42L58.50 -0.05L57.17 0.20L56.08 0.23L55.25 0.18L54.33 -0.04L53.17 -0.63L52.47 -1.25L51.97 -2.00L51.64 -2.83L51.47 -3.75L51.48 -5.42L51.60 -6.00L51.88 -6.75L52.22 -7.33L52.83 -7.96L53.42 -8.38L54.25 -8.79L55.92 -9.25L57.50 -9.44L60.92 -9.58L60.93 -10.25L60.79 -11.25L60.52 -11.75L60.29 -12.00L59.92 -12.27L59.50 -12.43L58.58 -12.56L57.25 -12.44L56.25 -12.21L55.25 -11.87L54.33 -11.46L54.20 -11.50L52.88 -14.25L54.00 -14.79L55.17 -15.17L56.50 -15.46ZM73.42 -15.58L73.92 -15.61L74.92 -15.52L76.00 -15.20L77.08 -14.58L77.83 -13.88L78.25 -13.38L78.38 -13.50L78.63 -15.08L78.67 -15.25L78.75 -15.32L82.17 -15.32L82.21 -15.25L82.21 0.08L82.18 0.83L81.96 2.17L81.60 3.17L81.13 4.00L80.67 4.57L80.00 5.19L79.25 5.69L78.50 6.04L77.92 6.25L76.67 6.53L74.75 6.68L72.75 6.61L71.42 6.46L70.42 6.27L68.86 5.75L68.86 2.58L68.92 2.46L70.25 2.96L71.83 3.35L73.00 3.53L74.00 3.60L75.50 3.58L76.33 3.37L76.75 3.17L77.08 2.89L77.60 2.25L77.85 1.67L77.96 1.17L78.13 -1.67L78.13 -2.00L78.08 -2.04L77.19 -1.00L76.75 -0.64L76.08 -0.25L75.58 -0.05L75.00 0.12L74.33 0.21L73.17 0.21L72.42 0.11L71.25 -0.29L70.42 -0.83L69.88 -1.33L69.46 -1.83L68.98 -2.58L68.54 -3.58L68.31 -4.33L68.06 -5.58L67.97 -6.42L67.96 -8.83L68.23 -10.67L68.56 -11.75L68.80 -12.33L69.47 -13.50L69.92 -14.03L70.58 -14.61L71.42 -15.12L71.83 -15.29L72.42 -15.46ZM92.00 -15.58L92.58 -15.61L93.67 -15.53L95.17 -15.18L96.42 -14.58L97.08 -14.08L97.75 -13.42L98.18 -12.83L98.52 -12.25L98.77 -11.67L99.03 -10.75L99.21 -9.42L99.23 -6.75L99.17 -6.65L89.42 -6.64L89.47 -5.75L89.64 -5.17L89.95 -4.50L90.42 -3.88L91.08 -3.38L91.58 -3.14L92.25 -2.95L93.92 -2.88L95.33 -3.05L96.42 -3.30L98.33 -4.05L98.38 -0.92L98.33 -0.83L98.08 -0.71L97.25 -0.38L95.75 0.03L94.58 0.18L93.75 0.22L91.92 0.19L90.83 0.03L89.92 -0.22L88.75 -0.71L88.00 -1.17L87.42 -1.63L86.63 -2.50L86.13 -3.25L85.72 -4.08L85.39 -5.17L85.22 -6.17L85.15 -7.25L85.21 -8.83L85.38 -10.08L85.65 -11.08L86.22 -12.33L86.72 -13.08L87.25 -13.69L87.92 -14.28L88.67 -14.75L89.50 -15.13L90.25 -15.36L91.25 -15.54ZM91.83 -12.58L91.33 -12.46L90.83 -12.20L90.31 -11.75L90.06 -11.42L89.80 -10.92L89.63 -10.42L89.46 -9.50L89.50 -9.44L95.25 -9.42L95.31 -9.50L95.28 -10.00L95.11 -10.75L94.85 -11.33L94.25 -12.08L93.67 -12.43L93.08 -12.58L92.50 -12.63ZM40.92 -12.17L40.33 -12.00L39.83 -11.69L39.30 -11.08L38.90 -10.25L38.71 -9.58L38.57 -8.42L38.56 -7.00L38.64 -6.08L38.87 -5.08L39.07 -4.58L39.30 -4.17L39.83 -3.58L40.25 -3.31L40.75 -3.13L41.50 -3.04L42.25 -3.08L42.92 -3.25L43.50 -3.56L44.03 -4.08L44.27 -4.50L44.54 -5.42L44.68 -6.67L44.68 -8.08L44.61 -9.08L44.44 -10.00L44.28 -10.50L43.92 -11.17L43.50 -11.62L43.00 -11.93L42.17 -12.18L41.33 -12.21ZM74.50 -12.17L73.83 -11.93L73.44 -11.67L72.97 -11.17L72.57 -10.33L72.38 -9.67L72.22 -8.67L72.20 -7.00L72.31 -5.92L72.47 -5.17L72.71 -4.58L73.13 -3.92L73.42 -3.63L73.92 -3.29L74.42 -3.12L75.00 -3.04L75.83 -3.08L76.67 -3.30L77.08 -3.54L77.53 -3.92L77.93 -4.58L78.18 -5.42L78.29 -6.17L78.31 -8.17L78.19 -9.42L78.03 -10.17L77.77 -10.83L77.35 -11.42L77.08 -11.67L76.67 -11.92L76.00 -12.14L75.33 -12.21ZM59.58 -7.08L58.50 -7.03L57.33 -6.79L56.67 -6.46L56.17 -5.97L55.89 -5.50L55.77 -5.08L55.71 -4.58L55.87 -3.75L56.25 -3.25L56.75 -2.97L57.17 -2.87L57.75 -2.81L58.50 -2.88L59.50 -3.25L60.00 -3.61L60.36 -4.00L60.70 -4.58L60.88 -5.17L60.93 -7.08Z" fill="#002a66" fill-rule="evenodd" transform="translate(57 27)"></path><g><path d="M0.80 -7.67L1.69 -7.67L1.67 -4.74L2.00 -5.08L2.58 -5.44L3.08 -5.53L3.67 -5.52L4.25 -5.37L4.67 -5.12L4.95 -4.83L5.26 -4.33L5.44 -3.83L5.53 -3.33L5.53 -2.17L5.44 -1.67L5.19 -1.00L4.95 -0.67L4.67 -0.40L4.25 -0.14L3.75 0.01L3.33 0.04L2.58 -0.07L2.25 -0.23L1.67 -0.75L1.42 -0.05L0.80 -0.08ZM33.39 -7.67L34.28 -7.67L34.28 -0.08L33.58 -0.06L33.42 -0.78L32.92 -0.32L32.42 -0.06L31.75 0.04L31.00 -0.07L30.50 -0.32L30.17 -0.62L29.89 -1.00L29.72 -1.42L29.57 -2.08L29.53 -2.75L29.57 -3.42L29.73 -4.08L29.91 -4.50L30.42 -5.12L30.83 -5.36L31.33 -5.51L32.00 -5.53L32.50 -5.43L32.92 -5.20L33.42 -4.76ZM48.89 -7.42L49.24 -7.42L49.53 -7.17L49.54 -6.67L49.42 -6.47L49.25 -6.38L48.83 -6.39L48.59 -6.67L48.57 -7.08L48.73 -7.33ZM16.38 -7.17L16.50 -7.22L17.25 -7.22L17.29 -7.17L17.29 -3.83L17.33 -3.73L20.42 -7.20L21.42 -7.21L21.44 -7.17L18.69 -4.08L21.57 -0.08L20.52 -0.08L18.00 -3.46L17.30 -2.83L17.29 -0.08L16.38 -0.08ZM52.22 -6.67L52.76 -6.67L52.76 -5.50L54.30 -5.42L54.30 -4.83L54.25 -4.78L52.83 -4.78L52.76 -4.67L52.80 -1.25L52.99 -0.92L53.33 -0.71L54.33 -0.77L54.35 -0.17L54.17 -0.06L53.42 0.04L52.67 -0.12L52.32 -0.33L52.06 -0.67L51.97 -0.92L51.88 -1.58L51.86 -4.75L51.17 -4.78L51.12 -5.17L51.90 -5.58ZM38.25 -5.50L39.17 -5.52L39.75 -5.36L40.08 -5.19L40.53 -4.83L40.79 -4.50L41.04 -4.00L41.19 -3.42L41.19 -2.08L41.04 -1.50L40.85 -1.08L40.54 -0.67L40.25 -0.41L39.75 -0.13L39.25 0.00L38.33 0.01L37.75 -0.15L37.28 -0.42L36.99 -0.67L36.63 -1.17L36.48 -1.50L36.31 -2.17L36.31 -3.33L36.47 -4.00L36.65 -4.42L37.25 -5.09L37.75 -5.36ZM44.34 -5.50L45.42 -5.52L46.17 -5.35L46.59 -5.17L46.35 -4.58L46.25 -4.50L45.25 -4.79L44.42 -4.78L44.00 -4.63L43.75 -4.33L43.75 -4.00L43.92 -3.73L44.33 -3.46L45.58 -2.95L46.08 -2.68L46.53 -2.25L46.67 -1.92L46.69 -1.25L46.59 -0.92L46.38 -0.58L45.92 -0.23L45.08 0.02L44.08 0.03L43.58 -0.05L43.25 -0.14L42.89 -0.33L42.92 -1.07L44.00 -0.73L44.92 -0.69L45.42 -0.80L45.58 -0.91L45.77 -1.08L45.86 -1.33L45.84 -1.67L45.57 -2.00L43.42 -3.07L43.07 -3.42L42.96 -3.67L42.91 -4.33L43.00 -4.66L43.16 -4.92L43.75 -5.34ZM6.53 -5.42L7.46 -5.42L8.69 -2.17L9.08 -0.91L10.63 -5.42L11.58 -5.42L9.09 1.17L8.79 1.67L8.33 2.11L8.00 2.26L7.58 2.35L7.08 2.37L6.67 2.30L6.62 2.25L6.62 1.67L6.67 1.60L7.42 1.64L7.92 1.42L8.28 0.92L8.66 0.00ZM23.00 -5.42L23.88 -5.42L23.88 -2.00L23.96 -1.42L24.07 -1.17L24.33 -0.89L24.67 -0.74L25.08 -0.69L25.50 -0.71L25.83 -0.81L26.13 -1.00L26.44 -1.42L26.63 -2.25L26.66 -5.42L27.54 -5.42L27.50 -0.06L26.83 -0.08L26.67 -0.76L26.33 -0.40L26.08 -0.23L25.33 0.01L24.50 0.03L24.08 -0.06L23.49 -0.42L23.13 -1.00L23.04 -1.42ZM48.64 -5.42L49.42 -5.44L49.50 -5.33L49.50 -0.08L49.42 -0.04L48.62 -0.08ZM55.20 -5.42L56.13 -5.42L57.36 -2.17L57.75 -0.91L59.30 -5.42L60.25 -5.42L57.76 1.17L57.45 1.67L57.00 2.11L56.67 2.26L56.25 2.35L55.75 2.37L55.33 2.30L55.28 2.25L55.28 1.67L55.33 1.60L56.08 1.64L56.58 1.42L56.95 0.92L57.32 0.00ZM2.75 -4.78L2.18 -4.50L1.98 -4.25L1.81 -3.83L1.69 -2.75L1.80 -1.75L2.00 -1.25L2.33 -0.90L2.83 -0.72L3.58 -0.73L4.08 -0.98L4.44 -1.50L4.62 -2.25L4.59 -3.50L4.37 -4.17L4.08 -4.52L3.83 -4.69L3.50 -4.78ZM31.50 -4.77L31.25 -4.67L30.92 -4.42L30.64 -3.92L30.46 -3.17L30.49 -2.08L30.65 -1.50L31.00 -0.98L31.50 -0.73L32.25 -0.72L32.58 -0.81L32.83 -0.95L33.12 -1.25L33.28 -1.58L33.41 -2.58L33.35 -3.50L33.09 -4.25L32.75 -4.60L32.25 -4.78ZM38.42 -4.76L37.75 -4.47L37.38 -3.92L37.21 -3.25L37.23 -2.17L37.42 -1.51L37.56 -1.25L37.83 -0.97L38.08 -0.80L38.33 -0.73L39.17 -0.73L39.42 -0.80L39.75 -1.04L40.10 -1.50L40.30 -2.33L40.27 -3.42L40.09 -4.00L39.95 -4.25L39.67 -4.53L39.08 -4.76Z" fill="#71718c" fill-rule="evenodd" transform="translate(57 43.57)"></path></g></svg>